<?xml version="1.0" standalone="no"?><!DOCTYPE svg PUBLIC "-//W3C//DTD SVG 1.1//EN" "http://www.w3.org/Graphics/SVG/1.1/DTD/svg11.dtd"><svg t="1610978037110" class="icon" viewBox="0 0 1024 1024" version="1.1" xmlns="http://www.w3.org/2000/svg" p-id="5127" xmlns:xlink="http://www.w3.org/1999/xlink" width="200" height="200"><defs><style type="text/css"></style></defs><path d="M592.738462 513.969231c0-45.292308 27.569231-84.676923 64.984615-104.369231-5.907692-76.8-68.923077-135.876923-147.692308-135.876923-80.738462 0-147.692308 66.953846-147.692307 147.692308s66.953846 147.692308 147.692307 147.692307c29.538462 0 59.076923-9.846154 80.738462-25.6v-29.538461z m0 202.830769v-37.415385c0-13.784615 1.969231-25.6 5.907692-37.415384H252.061538c0-57.107692-45.292308-104.369231-104.36923-104.369231V317.046154c57.107692 0 104.369231-45.292308 104.36923-104.369231h517.907693c0 57.107692 45.292308 104.369231 104.369231 104.369231v78.769231h74.830769c13.784615 0 25.6 1.969231 37.415384 5.907692V191.015385c0-49.230769-39.384615-88.615385-88.615384-88.615385H128C78.769231 102.4 39.384615 141.784615 39.384615 191.015385v476.553846c0 49.230769 39.384615 88.615385 88.615385 88.615384h472.615385c-3.938462-11.815385-7.876923-25.6-7.876923-39.384615zM984.615385 884.184615c0 19.692308-19.692308 37.415385-39.384616 37.415385H708.923077c-19.692308 0-37.415385-17.723077-37.415385-37.415385V846.769231c0-19.692308 17.723077-37.415385 37.415385-37.415385h238.276923c19.692308 0 37.415385 17.723077 37.415385 37.415385v37.415384z m0-165.415384c0 19.692308-19.692308 37.415385-39.384616 37.415384H708.923077c-19.692308 0-37.415385-17.723077-37.415385-37.415384v-37.415385c0-19.692308 17.723077-37.415385 37.415385-37.415384h238.276923c19.692308 0 37.415385 17.723077 37.415385 37.415384v37.415385z m0-167.384616c0 19.692308-19.692308 37.415385-39.384616 37.415385H708.923077c-19.692308 0-37.415385-17.723077-37.415385-37.415385v-37.415384c0-19.692308 17.723077-37.415385 37.415385-37.415385h238.276923c19.692308 0 37.415385 17.723077 37.415385 37.415385V551.384615z" p-id="5128"></path></svg>